<?xml version="1.0" standalone="no"?>
<!DOCTYPE svg PUBLIC "-//W3C//DTD SVG 20010904//EN"
 "http://www.w3.org/TR/2001/REC-SVG-20010904/DTD/svg10.dtd">
<svg version="1.0" xmlns="http://www.w3.org/2000/svg"
 width="1820.000000pt" height="158.000000pt" viewBox="0 0 1820.000000 158.000000"
 preserveAspectRatio="xMidYMid meet">

<g transform="translate(0.000000,158.000000) scale(0.100000,-0.100000)"
fill="#053f87" stroke="none">
<path d="M13765 1189 c-63 -62 -115 -116 -115 -121 0 -5 7 -11 16 -15 11 -4
47 25 118 96 l102 102 104 -106 c93 -94 106 -104 119 -90 14 14 3 27 -99 130
-63 63 -118 115 -122 115 -5 0 -60 -50 -123 -111z"/>
<path d="M13797 1137 l-87 -82 0 -77 0 -78 -165 0 -165 0 0 -174 0 -174 -62
-6 c-35 -3 -124 -10 -198 -16 -74 -6 -198 -20 -274 -30 -77 -11 -142 -18 -144
-15 -3 2 0 10 6 18 15 18 -5 57 -40 76 -25 14 -29 14 -57 -7 -39 -28 -41 -28
-41 6 0 16 -5 54 -11 86 l-12 57 -36 -3 c-32 -3 -36 -6 -39 -34 -3 -27 -8 -33
-34 -38 -39 -8 -52 4 -52 49 0 21 -4 31 -9 26 -5 -5 -6 -28 -2 -50 6 -37 9
-41 37 -41 16 0 38 5 48 10 22 12 24 6 35 -88 4 -38 2 -54 -7 -57 -7 -2 -76
-13 -153 -25 -129 -18 -141 -18 -150 -3 -21 34 -46 53 -69 53 -32 0 -74 -50
-71 -84 3 -23 -1 -26 -25 -26 -31 0 -48 16 -33 31 6 6 4 51 -3 117 -17 140
-17 140 4 146 26 8 500 74 556 78 51 3 76 -15 35 -25 -19 -5 -21 -10 -14 -44
3 -21 10 -42 14 -46 4 -4 40 -3 80 4 40 6 79 8 88 5 14 -6 14 -9 -3 -27 -19
-21 -19 -22 4 -36 12 -9 22 -26 22 -39 0 -13 4 -24 10 -24 15 0 3 99 -15 126
-14 22 -20 24 -64 18 l-49 -6 -25 56 c-25 54 -27 56 -65 56 -60 0 -549 -71
-584 -85 -26 -10 -27 -25 -12 -141 8 -60 12 -121 8 -137 -5 -26 -8 -27 -52
-23 -80 9 -290 17 -444 17 -144 0 -147 0 -135 19 6 11 15 20 19 20 5 0 8 5 8
10 0 6 -9 10 -20 10 -11 0 -20 3 -20 8 0 4 -12 8 -26 8 -18 2 -24 -2 -20 -12
3 -8 0 -14 -7 -14 -8 0 -7 -3 2 -9 8 -5 19 -7 25 -5 7 3 12 -5 13 -16 1 -15
-4 -20 -23 -20 -13 0 -24 5 -24 10 0 7 -6 7 -19 0 -11 -5 -86 -10 -170 -10
-133 0 -151 2 -159 18 -11 21 -24 97 -23 135 0 15 -5 27 -11 27 -6 0 1 12 16
26 29 30 34 65 11 84 -10 9 -12 16 -5 24 7 9 0 16 -24 24 -37 14 -71 6 -99
-23 -21 -21 -22 -79 -2 -99 19 -19 19 -36 0 -50 -8 -6 -16 -31 -17 -55 -3 -40
-1 -45 22 -51 18 -4 26 -14 28 -33 4 -30 -2 -32 -109 -41 l-65 -6 4 35 c3 21
0 35 -7 35 -6 0 -10 3 -9 7 1 5 -4 25 -11 45 -7 21 -9 42 -6 48 4 6 2 17 -4
24 -8 10 -5 16 15 24 14 7 22 17 18 23 -3 6 -1 15 6 19 8 5 9 19 3 51 l-9 44
-51 3 c-68 4 -93 -20 -93 -90 0 -41 4 -50 22 -57 14 -5 17 -10 10 -15 -9 -5
-9 -12 0 -26 10 -15 9 -22 -5 -38 -27 -29 -22 -59 11 -66 15 -3 39 -4 55 -2
23 3 27 0 21 -16 -3 -10 -1 -25 5 -32 9 -10 -8 -14 -87 -19 -87 -6 -172 -18
-242 -33 -24 -5 -24 -5 -6 15 10 11 16 24 13 28 -3 5 -1 15 4 23 8 13 10 13
19 0 5 -8 11 -19 14 -25 2 -7 7 -7 14 0 7 7 5 30 -6 74 -12 51 -13 67 -3 83
10 15 10 23 0 35 -10 11 -10 16 0 22 7 5 19 20 26 35 12 23 12 35 2 67 -12 38
-13 39 -58 39 -34 0 -51 -5 -66 -22 -26 -28 -32 -80 -13 -103 11 -13 11 -20 2
-33 -7 -10 -15 -24 -18 -32 -5 -14 -25 -58 -32 -71 -1 -4 3 -7 10 -6 42 1 59
-5 67 -25 9 -24 3 -47 -8 -30 -9 15 -51 -5 -51 -24 0 -10 -3 -14 -7 -11 -3 4
-13 2 -20 -5 -20 -17 -65 39 -52 64 7 13 4 20 -10 28 -26 14 -28 13 -34 -10
-4 -14 -11 -18 -24 -14 -13 4 -14 3 -5 -3 21 -16 3 -45 -25 -40 -24 4 -24 4
-4 -14 30 -28 15 -73 -26 -77 -31 -3 -31 -3 -31 43 0 37 4 49 24 61 13 9 24
22 24 29 0 28 -64 28 -82 1 -12 -18 -9 -36 6 -36 23 0 17 -104 -6 -108 -14 -3
-18 3 -18 28 0 17 5 41 11 52 11 20 10 20 -18 5 -15 -8 -41 -19 -58 -23 -36
-11 -47 -44 -15 -44 19 0 21 -2 10 -15 -7 -9 -23 -15 -34 -13 -17 2 -22 13
-29 58 -8 57 -29 100 -49 100 -7 0 -29 -17 -50 -37 l-37 -37 -27 59 c-15 33
-29 54 -31 48 -3 -7 1 -22 7 -33 6 -12 9 -24 6 -27 -3 -3 1 -15 9 -27 8 -11
15 -32 15 -46 0 -14 9 -31 20 -38 30 -19 24 -32 -15 -32 -30 0 -35 3 -35 24 0
14 -11 38 -25 54 -14 17 -25 37 -25 46 0 9 -4 16 -10 16 -5 0 -10 -6 -10 -13
0 -8 -11 -24 -24 -36 -19 -18 -31 -21 -54 -16 -17 3 -33 2 -36 -3 -3 -5 8 -12
24 -16 20 -3 34 -14 40 -30 5 -13 17 -27 27 -29 10 -3 -2 -5 -27 -4 -39 2 -47
6 -59 32 l-15 30 -13 -33 c-12 -28 -17 -32 -52 -32 -34 0 -40 4 -49 30 -9 25
-8 30 8 35 18 6 17 8 -6 42 -28 42 -31 63 -6 63 16 1 16 1 -1 14 -16 13 -16
14 8 30 15 10 22 22 19 31 -4 9 0 15 10 15 9 0 16 4 16 9 0 21 -24 77 -38 88
-24 19 -70 16 -103 -8 -24 -17 -29 -27 -29 -64 0 -51 -29 -82 -62 -64 -15 8
-18 6 -18 -12 0 -15 4 -19 16 -15 21 8 65 -4 58 -15 -3 -5 -14 -9 -25 -9 -10
0 -19 -4 -19 -10 0 -5 5 -10 11 -10 8 0 7 -5 -1 -15 -7 -9 -11 -17 -9 -18 2
-1 16 -9 32 -17 15 -7 27 -19 27 -27 0 -7 6 -13 14 -13 16 0 31 -34 21 -50 -3
-5 -43 -10 -87 -10 l-81 0 23 25 23 25 -21 0 c-12 0 -22 4 -22 8 0 16 -39 7
-43 -10 -3 -11 0 -18 8 -18 7 0 15 -7 19 -15 4 -11 -2 -15 -20 -15 -16 0 -23
4 -18 11 4 8 1 8 -12 1 -11 -5 -75 -12 -144 -16 -69 -3 -143 -9 -165 -12 -36
-5 -41 -4 -42 15 -1 15 4 21 19 21 38 0 13 9 -35 13 -34 2 -47 0 -47 -10 0 -7
-5 -13 -11 -13 -5 0 -7 -4 -4 -10 3 -5 15 -10 26 -10 42 0 16 -18 -31 -22 -28
-1 -50 0 -50 5 0 4 -9 7 -21 7 -11 0 -18 -4 -15 -9 9 -14 -61 -23 -222 -27
-129 -4 -156 -2 -169 11 -18 19 -48 16 -48 -5 0 -18 -47 -29 -127 -29 -32 -1
-58 0 -58 2 0 14 52 122 57 120 5 -1 8 12 9 28 1 36 6 41 28 33 22 -8 20 -40
-4 -71 -27 -35 -26 -57 2 -50 14 4 26 0 34 -11 11 -15 13 -14 19 11 8 30 15
33 33 15 9 -9 15 -10 20 -2 4 6 24 19 45 29 42 20 45 27 18 54 -22 22 -71 17
-71 -7 0 -8 -3 -12 -7 -9 -3 4 -12 2 -18 -3 -17 -14 -48 34 -40 60 4 14 2 20
-8 20 -9 0 -18 6 -20 13 -4 9 -6 9 -6 -1 -2 -25 -48 -65 -67 -58 -17 7 -17 6
0 -12 16 -19 16 -22 -3 -77 -29 -81 -71 -125 -71 -72 0 12 7 47 15 77 9 35 11
58 5 64 -7 7 -10 0 -11 -20 -2 -84 -69 -186 -69 -106 0 17 5 32 10 34 6 2 17
27 25 56 13 50 12 53 -3 47 -9 -4 -32 -11 -50 -15 -19 -5 -36 -11 -39 -13 -9
-9 8 -28 19 -21 7 4 8 -8 3 -37 -8 -48 -23 -92 -24 -71 -1 7 -4 11 -9 8 -4 -2
-8 23 -10 57 -4 96 -12 134 -32 152 -19 17 -21 16 -56 -14 -20 -18 -38 -30
-40 -28 -2 2 -13 28 -24 58 -19 54 -19 54 -16 14 2 -22 8 -52 14 -67 6 -15 9
-35 6 -43 -4 -8 1 -17 10 -21 15 -6 36 -61 36 -97 0 -14 -7 -17 -35 -14 -20 3
-37 6 -39 8 -9 13 -56 99 -56 103 0 3 7 6 15 6 8 0 15 -7 15 -15 0 -8 7 -15
15 -15 20 0 19 15 -4 59 -11 20 -22 44 -25 55 -6 16 -9 14 -29 -15 -21 -31
-27 -34 -68 -31 l-44 2 35 -12 c24 -9 36 -20 38 -36 2 -12 10 -22 18 -22 13 0
49 -68 40 -77 -2 -2 -28 -1 -57 3 -30 5 -46 10 -36 12 23 5 22 34 -3 62 -11
13 -20 30 -20 38 0 18 -69 -57 -70 -75 0 -17 -9 -17 -150 12 -68 14 -125 25
-127 25 -3 0 -3 7 1 15 3 9 0 15 -8 15 -8 0 -16 -5 -18 -11 -2 -7 -24 -5 -66
7 -60 17 -63 19 -57 43 4 14 11 28 16 29 5 2 9 12 9 21 0 23 9 31 26 24 18 -7
18 -37 -1 -53 -17 -14 -21 -55 -5 -45 6 4 17 2 25 -5 10 -9 15 -7 20 10 5 14
12 19 25 15 11 -3 20 0 24 11 3 9 13 14 20 11 8 -3 20 1 27 10 11 13 10 17 -4
28 -18 13 -61 9 -52 -5 3 -4 -4 -10 -15 -13 -22 -6 -53 33 -44 56 3 8 -1 17
-10 20 -8 3 -17 -1 -20 -9 -3 -9 -10 -13 -15 -10 -5 3 -8 -2 -7 -12 0 -10 -5
-16 -13 -14 -8 2 -11 -3 -8 -12 4 -9 1 -29 -4 -46 -8 -22 -17 -30 -34 -30 -21
0 -23 3 -15 30 5 18 5 32 -1 35 -5 4 -9 -4 -9 -17 0 -13 -4 -30 -10 -38 -8
-12 -10 -12 -16 3 -3 9 -3 29 0 43 6 23 4 25 -16 19 -13 -4 -31 -9 -40 -11
-19 -6 -25 -24 -8 -24 6 0 10 -7 10 -15 0 -8 -9 -15 -19 -15 -15 0 -20 10 -26
49 -4 27 -13 58 -20 68 -13 17 -15 17 -43 -11 -28 -26 -52 -29 -52 -6 0 5 -5
21 -10 36 -18 46 -22 19 -5 -31 9 -26 14 -49 11 -53 -3 -3 1 -14 11 -24 15
-17 15 -18 -10 -18 -20 0 -27 5 -27 19 0 10 -7 24 -15 31 -8 7 -15 24 -15 39
l0 26 -26 -32 c-21 -27 -30 -32 -57 -28 -31 5 -31 5 -6 -5 36 -15 46 -50 14
-50 -15 0 -25 7 -28 21 -6 21 -6 21 -29 -4 -20 -22 -36 -26 -128 -35 -57 -6
-105 -10 -106 -9 -1 1 -5 14 -9 28 -6 24 -3 27 37 35 28 6 44 15 46 27 2 12
-3 17 -17 17 -53 0 -32 157 22 160 4 0 7 -8 7 -17 0 -10 9 -1 21 21 11 21 19
50 17 65 -3 24 -8 27 -72 35 -83 11 -98 4 -108 -55 -10 -56 -3 -77 28 -85 37
-9 29 -20 -28 -36 -34 -9 -54 -21 -56 -31 -3 -15 1 -16 23 -7 47 18 55 14 44
-20 -12 -34 -25 -39 -32 -12 -3 9 -5 3 -6 -14 -1 -31 -2 -31 -78 -47 -111 -23
-125 -23 -152 -5 -26 19 -37 16 -102 -24 -35 -21 -61 -28 -107 -30 -34 -2 -62
-6 -62 -10 0 -17 -29 -7 -35 12 -9 27 3 60 21 60 8 0 12 5 9 10 -3 6 -26 10
-51 10 -24 0 -44 5 -44 10 0 6 4 10 10 10 21 0 31 39 20 80 -23 85 -129 72
-146 -17 -7 -40 10 -64 48 -68 13 -1 26 -3 29 -4 3 0 2 -27 -2 -58 -6 -46 -13
-61 -38 -80 -35 -27 -42 -50 -12 -33 23 12 91 14 91 2 0 -17 -13 -22 -27 -11
-10 9 -13 7 -13 -9 0 -32 -9 -33 -150 -17 -36 4 -68 11 -71 17 -4 5 -9 3 -12
-5 -4 -11 -22 -15 -61 -16 -46 0 -56 3 -56 17 0 13 -3 12 -16 -6 -8 -12 -24
-22 -35 -22 -19 0 -25 22 -21 73 1 9 -5 17 -13 17 -14 0 -20 23 -28 112 -4 39
-1 50 19 67 13 11 26 31 30 45 4 17 11 22 25 19 20 -6 24 4 11 25 -5 7 -16 10
-25 6 -10 -3 -28 3 -43 15 -25 20 -59 21 -89 2 -5 -3 -19 -6 -29 -6 -11 0 -20
-8 -22 -18 -2 -13 2 -17 12 -13 13 5 20 -22 15 -61 -1 -6 10 -20 24 -31 21
-17 23 -21 10 -32 -10 -8 -19 -9 -28 -3 -6 6 -24 13 -39 17 -24 5 -28 3 -28
-14 0 -12 5 -18 10 -15 6 3 10 2 10 -4 0 -5 -5 -13 -10 -16 -6 -4 -7 -23 -4
-45 5 -32 3 -39 -13 -44 -11 -4 -26 -4 -34 -1 -18 8 -49 74 -38 81 13 8 11
108 -3 122 -15 15 -72 16 -98 2 -10 -5 -24 -26 -30 -45 -13 -41 -5 -57 42 -81
30 -16 33 -21 19 -43 -7 -11 -19 -11 -77 2 l-69 16 -84 -55 c-77 -52 -152 -84
-194 -84 -18 0 -38 37 -40 77 -2 26 -8 28 -24 12 -7 -7 -8 -21 -2 -42 11 -41
11 -47 -1 -47 -6 0 -15 11 -20 24 -13 34 -25 38 -45 16 -20 -22 -46 -25 -77
-9 -19 10 -19 12 11 30 35 21 35 20 20 71 -16 61 -61 77 -126 46 -47 -23 -53
-103 -10 -133 20 -14 21 -15 2 -28 -16 -12 -24 -11 -59 9 -45 26 -67 30 -64
12 2 -7 -8 -13 -24 -13 -15 0 -30 -4 -34 -8 -16 -15 -69 -5 -157 30 -89 36
-97 38 -222 40 -71 1 -164 -3 -205 -9 -89 -12 -234 -56 -338 -104 -41 -19 -78
-31 -83 -28 -5 3 -9 1 -9 -3 0 -15 -59 -44 -83 -41 -12 2 -27 12 -34 23 -12
20 -12 20 -13 -1 0 -20 -6 -21 -74 -22 -62 -1 -76 2 -79 16 -4 15 -5 15 -6 0
-1 -24 -18 -23 -31 3 -7 11 -14 18 -17 15 -3 -3 0 -12 7 -21 11 -13 8 -15 -19
-15 -29 0 -32 3 -26 23 5 19 4 20 -7 7 -7 -8 -31 -16 -53 -17 l-40 -3 30 24
c40 32 29 41 -19 15 -20 -11 -41 -17 -46 -14 -5 3 -11 1 -15 -5 -3 -5 -15 -10
-26 -10 -19 0 -18 2 5 48 13 26 26 58 30 72 4 14 -8 -4 -26 -40 -41 -80 -59
-89 -47 -24 5 26 13 63 18 81 5 18 6 35 1 38 -4 2 -10 -12 -13 -33 -3 -20 -11
-50 -18 -67 -6 -16 -11 -38 -10 -48 2 -13 -3 -18 -16 -15 -14 3 -17 11 -15 42
2 22 10 46 18 53 8 8 14 23 14 33 0 10 3 25 6 34 5 13 0 15 -27 10 -47 -9 -65
-24 -47 -38 11 -9 11 -20 2 -55 -14 -60 -27 -39 -35 56 -4 49 -12 79 -23 92
-17 19 -18 19 -49 -10 -34 -33 -39 -31 -57 24 -16 52 -24 40 -9 -14 6 -24 12
-51 12 -59 0 -8 5 -22 12 -30 7 -8 16 -31 20 -50 3 -19 9 -43 11 -52 4 -12 0
-18 -10 -18 -9 0 -16 8 -17 18 0 16 -1 16 -7 0 -5 -13 -11 -15 -22 -8 -8 5
-12 10 -8 10 4 0 -6 23 -23 51 -17 27 -28 53 -24 57 3 4 12 -1 19 -11 7 -9 16
-17 20 -17 12 0 6 34 -10 51 -8 9 -17 26 -19 36 -2 10 -4 20 -4 22 -1 2 -11
-9 -22 -24 -19 -23 -27 -26 -55 -20 -21 3 -34 2 -34 -5 0 -5 9 -10 20 -10 10
0 25 -10 31 -23 7 -12 18 -26 25 -32 18 -14 34 -59 26 -72 -4 -7 -26 -9 -55
-6 -48 6 -62 21 -27 30 26 7 25 27 -1 62 l-21 29 -29 -31 c-31 -32 -39 -63
-14 -53 15 5 33 -19 23 -29 -3 -3 -124 -9 -269 -14 -145 -6 -299 -15 -342 -22
-73 -11 -82 -10 -155 14 -103 34 -271 67 -341 67 -99 -1 -212 -54 -329 -153
-31 -27 -83 -62 -114 -78 -32 -16 -58 -31 -58 -34 0 -3 4094 -5 9097 -5 7980
0 9095 2 9077 15 -12 8 -45 24 -75 35 -30 12 -90 39 -134 61 -130 63 -170 70
-455 79 -140 4 -270 12 -288 18 -19 6 -75 27 -125 46 -51 19 -110 37 -132 41
-60 9 -397 95 -415 106 -10 6 3 9 40 9 l55 2 -35 13 c-32 13 -33 14 -13 20 13
4 20 12 16 21 -5 13 -9 13 -29 -1 -13 -8 -24 -11 -24 -6 0 5 11 16 25 25 14 9
25 12 25 7 0 -12 58 -33 95 -33 17 0 53 0 80 2 45 1 47 3 22 10 -16 5 -39 5
-50 1 -25 -10 -67 3 -67 20 0 8 -4 8 -15 -1 -10 -8 -15 -9 -15 -2 0 7 -8 9
-17 5 -16 -6 -17 -5 -3 11 8 11 16 14 18 7 3 -8 9 -8 25 0 11 7 39 13 61 14
23 1 48 4 56 8 8 3 27 8 43 11 l27 6 -21 41 c-11 22 -19 50 -17 62 2 17 -6 26
-32 40 -31 15 -32 17 -7 12 31 -6 38 14 7 22 -26 7 -25 30 3 54 12 10 17 18
10 19 -6 0 -20 3 -30 7 -16 6 -17 5 -3 -12 16 -20 17 -20 -35 1 -8 3 -15 1
-15 -4 0 -6 7 -12 15 -14 10 -2 12 -7 5 -18 -9 -13 -12 -13 -20 2 -6 9 -17 15
-25 12 -8 -4 -15 -1 -15 5 0 6 -5 11 -11 11 -12 0 -39 25 -39 36 0 3 -20 26
-44 50 -42 43 -46 45 -126 52 -100 10 -126 7 -165 -16 -13 -8 -15 -11 -6 -12
13 0 13 -2 2 -12 -11 -10 -14 -10 -18 0 -8 21 -23 13 -23 -12 0 -22 -6 -26
-47 -31 -75 -10 -82 -13 -76 -36 5 -18 3 -20 -16 -14 -20 6 -26 -1 -22 -31 1
-6 -15 -19 -34 -29 -30 -13 -34 -19 -24 -31 9 -11 8 -14 -5 -14 -9 0 -16 -4
-16 -9 0 -16 20 -23 33 -13 8 6 21 6 37 0 24 -10 24 -10 5 -18 -12 -4 -27 -15
-34 -24 -7 -9 -27 -16 -43 -16 -31 0 -44 -19 -34 -47 6 -14 9 -15 15 -4 10 16
31 6 31 -13 0 -8 11 -13 25 -13 14 0 25 5 25 12 0 8 6 16 13 18 9 4 9 6 0 6
-6 1 -15 -3 -18 -9 -3 -5 -13 -10 -21 -10 -10 0 -12 5 -7 12 4 7 8 20 8 28 0
8 8 14 17 14 10 -1 17 1 16 5 0 3 0 12 1 20 1 19 16 4 16 -17 0 -9 6 -16 13
-14 7 1 12 -8 12 -20 0 -14 3 -18 8 -12 9 15 41 3 67 -26 15 -17 16 -21 5 -20
-8 1 -24 2 -35 1 -20 -2 -20 -2 -1 -16 17 -13 17 -15 4 -15 -18 0 -48 -26 -48
-41 0 -5 14 -7 31 -4 17 3 28 2 25 -4 -3 -5 3 -11 14 -14 11 -3 18 -1 15 3 -3
5 -1 11 5 15 5 3 10 -1 10 -9 0 -17 16 -22 22 -7 5 14 58 25 58 12 0 -6 13
-11 29 -11 19 0 34 -8 45 -24 9 -14 12 -27 8 -29 -4 -3 -54 -12 -112 -22 -101
-16 -115 -16 -366 4 -144 12 -271 21 -283 21 -39 0 -18 39 22 42 20 2 26 6 21
18 -3 8 -7 22 -9 30 -3 8 -7 25 -10 36 -4 12 -2 25 4 28 18 11 13 71 -7 89
-10 10 -32 17 -48 17 -23 0 -32 -7 -43 -32 -11 -24 -11 -33 -3 -36 7 -2 9 -8
6 -13 -3 -6 -1 -16 6 -24 7 -9 8 -15 0 -20 -5 -3 -7 -17 -4 -29 5 -21 -18 -96
-30 -96 -34 0 -343 53 -350 60 -6 6 2 14 22 21 26 9 32 16 32 40 0 16 -6 38
-12 49 -10 16 -10 22 4 32 45 36 15 108 -45 108 -26 0 -35 -6 -46 -32 -13 -28
-12 -35 2 -60 9 -16 12 -28 5 -28 -5 0 -7 -7 -4 -16 4 -9 -1 -28 -9 -41 -9
-13 -14 -27 -11 -31 3 -4 1 -14 -4 -22 -7 -12 -23 -12 -97 -2 -48 6 -205 16
-348 22 -143 6 -270 13 -282 16 -23 4 -23 5 -23 199 l0 195 -160 0 -160 0 0
78 0 78 -52 49 c-29 28 -69 64 -88 82 l-35 31 -88 -81z m128 -29 c58 -26 71
-103 26 -149 -83 -82 -208 36 -132 125 30 34 66 43 106 24z m-397 -350 l3 -38
-45 0 c-45 0 -46 0 -46 33 0 43 6 49 50 45 33 -3 35 -5 38 -40z m112 2 l0 -40
-40 0 -40 0 0 40 0 40 40 0 40 0 0 -40z m118 -2 l3 -38 -45 0 c-45 0 -46 0
-46 33 0 43 6 49 50 45 33 -3 35 -5 38 -40z m332 2 l0 -40 -40 0 -40 0 0 40 0
40 40 0 40 0 0 -40z m118 -2 l3 -38 -45 0 c-45 0 -46 0 -46 33 0 43 6 49 50
45 33 -3 35 -5 38 -40z m112 2 l0 -40 -40 0 -40 0 0 40 0 40 40 0 40 0 0 -40z
m-1700 -36 c15 -37 13 -44 -14 -44 -17 0 -26 7 -30 25 -12 48 27 65 44 19z
m3706 -1 c-2 -3 15 -24 39 -48 l44 -43 -35 1 c-23 1 -33 5 -30 13 3 7 -3 23
-13 36 -10 13 -22 34 -26 48 -7 22 -6 23 9 11 9 -8 14 -16 12 -18z m94 -29
c-18 -21 -24 -10 -9 18 8 14 14 18 17 10 2 -7 -2 -19 -8 -28z m-3868 -89 c18
-92 15 -110 -18 -103 -15 2 -19 13 -21 48 -1 25 -6 66 -11 92 -10 50 -7 60 17
56 10 -2 20 -31 33 -93z m968 45 l0 -40 -40 0 -40 0 0 40 0 40 40 0 40 0 0
-40z m118 -2 l3 -38 -45 0 c-45 0 -46 0 -46 33 0 43 6 49 50 45 33 -3 35 -5
38 -40z m112 2 l0 -40 -40 0 -40 0 0 40 0 40 40 0 40 0 0 -40z m340 -10 l0
-40 -40 0 -40 0 0 40 0 40 40 0 40 0 0 -40z m110 0 l0 -40 -40 0 -40 0 0 40 0
40 40 0 40 0 0 -40z m120 0 l0 -40 -40 0 -40 0 0 40 0 40 40 0 40 0 0 -40z
m1930 8 c0 -5 -10 -6 -21 -3 -19 6 -20 5 -8 -8 8 -8 20 -12 26 -10 7 3 13 -2
13 -10 0 -8 8 -14 17 -13 11 0 19 -7 21 -20 2 -17 -5 -24 -29 -33 -28 -10 -35
-8 -54 9 -12 11 -24 20 -28 20 -15 0 -47 36 -47 53 0 16 3 17 15 7 10 -9 15
-9 15 -1 0 6 7 11 16 11 13 0 14 3 5 14 -10 12 -7 13 23 4 20 -6 36 -15 36
-20z m440 28 c0 -2 -3 -11 -6 -20 -5 -13 -8 -13 -20 -1 -19 19 -18 25 6 25 11
0 20 -2 20 -4z m-2742 -110 l3 -89 -30 6 c-16 4 -46 13 -65 21 -36 15 -36 15
-36 79 0 35 3 67 7 71 4 4 32 6 63 4 l55 -3 3 -89z m2482 79 c0 -8 -2 -15 -4
-15 -2 0 -6 7 -10 15 -3 8 -1 15 4 15 6 0 10 -7 10 -15z m40 5 c0 -5 -5 -10
-11 -10 -5 0 -7 5 -4 10 3 6 8 10 11 10 2 0 4 -4 4 -10z m320 0 c0 -5 -5 -10
-11 -10 -5 0 -7 5 -4 10 3 6 8 10 11 10 2 0 4 -4 4 -10z m-4020 -20 c0 -5 -4
-10 -10 -10 -5 0 -10 5 -10 10 0 6 5 10 10 10 6 0 10 -4 10 -10z m3860 6 c0
-3 -4 -8 -10 -11 -5 -3 -10 -1 -10 4 0 6 5 11 10 11 6 0 10 -2 10 -4z m110
-12 c0 -8 -4 -13 -9 -9 -5 3 -23 -9 -39 -26 -21 -22 -29 -26 -29 -14 0 16 51
65 68 65 5 0 9 -7 9 -16z m70 0 c0 -8 -32 -33 -43 -34 -5 0 -5 5 -2 10 3 6 0
10 -7 11 -7 1 -2 5 12 9 33 11 40 11 40 4z m-403 -18 c-4 -10 2 -16 16 -18 22
-3 26 -28 12 -67 -8 -21 -45 16 -45 45 0 25 9 54 17 54 3 0 3 -6 0 -14z m73 5
c0 -12 -20 -25 -27 -18 -7 7 6 27 18 27 5 0 9 -4 9 -9z m50 5 c0 -3 -4 -8 -10
-11 -5 -3 -10 -1 -10 4 0 6 5 11 10 11 6 0 10 -2 10 -4z m114 -30 c-3 -9 -10
-13 -16 -10 -5 3 -4 12 3 20 15 18 22 13 13 -10z m-304 -7 c0 -5 -4 -9 -10 -9
-5 0 -10 7 -10 16 0 8 5 12 10 9 6 -3 10 -10 10 -16z m420 -6 c0 -9 -62 -53
-73 -53 -19 0 -3 27 26 42 36 19 47 21 47 11z m-4076 -35 c20 -28 20 -33 0
-52 -21 -21 -80 -21 -88 0 -9 25 -7 33 14 54 26 26 55 25 74 -2z m3611 -2
c-11 -8 -24 -12 -29 -8 -5 3 -1 9 10 13 31 12 39 10 19 -5z m-7096 -20 c9 -10
8 -16 -4 -26 -13 -11 -19 -10 -33 4 -15 15 -15 18 -2 26 20 13 26 12 39 -4z
m7121 4 c0 -5 -5 -10 -11 -10 -5 0 -7 5 -4 10 3 6 8 10 11 10 2 0 4 -4 4 -10z
m-9718 -85 c3 -37 0 -45 -14 -45 -11 0 -15 5 -12 14 3 8 0 24 -6 36 -6 11 -8
30 -5 41 11 33 33 5 37 -46z m5560 20 c17 -37 4 -55 -40 -55 -64 0 -83 42 -36
79 30 24 58 15 76 -24z m4288 24 c-7 -11 -14 -19 -16 -16 -7 7 7 37 17 37 6 0
5 -9 -1 -21z m15 -35 c-9 -9 -19 -13 -23 -9 -4 4 -1 10 6 12 6 3 12 13 12 22
0 27 15 36 18 12 2 -12 -4 -28 -13 -37z m-3878 29 c3 -7 -18 -16 -54 -23 -32
-6 -107 -22 -168 -36 -60 -13 -127 -24 -148 -24 -34 0 -38 3 -35 22 3 20 11
24 58 30 30 4 111 16 180 27 136 21 161 22 167 4z m-2843 -25 c8 -13 17 -46
21 -74 l7 -52 -37 -4 c-41 -5 -84 20 -71 40 11 19 33 14 39 -8 3 -11 10 -20
16 -20 15 0 14 36 -3 69 -15 28 -12 71 5 71 5 0 15 -10 23 -22z m6546 12 c0
-5 -2 -10 -4 -10 -3 0 -8 5 -11 10 -3 6 -1 10 4 10 6 0 11 -4 11 -10z m-8681
-29 c14 -25 27 -211 15 -211 -15 0 -97 128 -89 140 9 14 35 -6 35 -26 0 -8 5
-14 10 -14 13 0 13 46 1 69 -11 19 -4 61 10 61 4 0 13 -8 18 -19z m2487 11
c23 -16 23 -42 0 -67 -29 -31 -56 -33 -56 -4 0 14 5 19 14 16 10 -4 12 0 9 14
-3 12 1 21 12 25 13 5 14 9 3 15 -7 5 -8 9 -3 9 6 0 15 -4 21 -8z m6414 -6 c0
-3 -4 -8 -10 -11 -5 -3 -10 -1 -10 4 0 6 5 11 10 11 6 0 10 -2 10 -4z m-9956
-22 c4 -9 4 -19 2 -21 -8 -8 -26 8 -26 23 0 19 16 18 24 -2z m-104 -9 c0 -8
-4 -15 -9 -15 -13 0 -22 16 -14 24 11 11 23 6 23 -9z m-4532 -20 c7 -14 12
-65 12 -113 l0 -87 -25 43 c-14 24 -34 56 -45 72 -13 18 -16 31 -10 35 14 9
30 -3 30 -23 0 -12 3 -13 12 -4 9 9 10 19 1 43 -20 51 3 82 25 34z m3522 5 c0
-19 -11 -26 -23 -14 -8 8 3 34 14 34 5 0 9 -9 9 -20z m570 -25 c0 -7 -35 -17
-82 -24 -46 -6 -98 -15 -116 -18 -32 -5 -33 -4 -30 23 3 29 5 29 103 45 90 14
101 14 113 1 6 -9 12 -21 12 -27z m-1230 5 c0 -11 -4 -20 -10 -20 -5 0 -10 9
-10 20 0 11 5 20 10 20 6 0 10 -9 10 -20z m832 -92 c-5 -5 -26 -10 -46 -11
-20 -1 -36 -5 -36 -8 0 -12 -42 -18 -66 -9 -29 12 -31 30 -3 30 16 0 19 4 14
20 -7 21 3 26 90 38 50 7 50 7 53 -22 2 -16 -1 -33 -6 -38z m3952 56 c11 -28
7 -35 -14 -24 -23 12 -27 40 -6 40 8 0 17 -7 20 -16z m-309 -24 c3 -5 -1 -10
-10 -10 -9 0 -13 5 -10 10 3 6 8 10 10 10 2 0 7 -4 10 -10z"/>
<path d="M13853 1087 c-26 -15 -33 -28 -33 -64 0 -39 30 -73 64 -73 55 0 92
69 61 116 -16 24 -65 35 -92 21z m53 -57 c8 0 14 -5 14 -11 0 -6 -8 -9 -17 -7
-12 2 -19 13 -20 33 -1 20 0 23 4 8 2 -13 11 -23 19 -23z"/>
<path d="M12635 510 c-8 -13 4 -32 16 -25 12 8 12 35 0 35 -6 0 -13 -4 -16
-10z"/>
<path d="M12103 444 c-8 -21 13 -42 28 -27 13 13 5 43 -11 43 -6 0 -13 -7 -17
-16z"/>
<path d="M10017 792 c-11 -2 -16 -10 -13 -17 3 -8 0 -16 -7 -18 -7 -3 -5 -8 7
-13 12 -4 29 -2 44 7 28 16 44 46 20 36 -9 -3 -19 -2 -24 2 -5 4 -17 6 -27 3z"/>
<path d="M11417 773 c-33 -23 -38 -31 -33 -55 3 -15 1 -28 -4 -28 -6 0 -10 -9
-10 -21 0 -19 1 -19 16 -5 20 21 27 20 49 -4 16 -18 16 -20 1 -26 -9 -3 -14
-10 -11 -15 3 -4 -4 -13 -15 -19 -23 -12 -27 -58 -6 -66 8 -3 12 -12 9 -20
-10 -26 73 -40 109 -18 11 7 10 87 -2 120 -9 22 -7 31 9 48 28 32 34 61 17 94
-26 51 -72 56 -129 15z"/>
<path d="M12445 730 c3 -5 11 -10 16 -10 6 0 7 5 4 10 -3 6 -11 10 -16 10 -6
0 -7 -4 -4 -10z"/>
<path d="M6810 710 c-9 -17 -8 -20 14 -20 29 0 44 19 25 31 -21 13 -27 11 -39
-11z"/>
<path d="M9980 720 c0 -5 7 -10 15 -10 8 0 15 5 15 10 0 6 -7 10 -15 10 -8 0
-15 -4 -15 -10z"/>
<path d="M12290 720 c-44 -5 -45 -5 -44 -42 2 -57 9 -68 48 -68 60 0 66 6 59
58 -3 26 -8 49 -12 52 -3 3 -26 3 -51 0z m52 -45 c5 -42 -10 -58 -48 -53 -21
2 -30 10 -36 33 -12 44 -4 55 41 55 37 0 39 -2 43 -35z"/>
<path d="M7872 702 c-12 -11 -19 -22 -15 -26 13 -13 50 -5 68 14 10 11 13 20
7 20 -6 0 -17 2 -24 5 -8 3 -24 -3 -36 -13z"/>
<path d="M10961 684 c0 -11 3 -14 6 -6 3 7 2 16 -1 19 -3 4 -6 -2 -5 -13z"/>
<path d="M12132 688 c-7 -7 -12 -16 -12 -21 0 -5 7 -1 16 8 9 9 28 15 43 13
24 -3 26 -7 25 -46 0 -27 3 -41 10 -39 10 4 10 73 -1 90 -7 12 -68 8 -81 -5z"/>
<path d="M6790 670 c0 -5 5 -10 10 -10 6 0 10 5 10 10 0 6 -4 10 -10 10 -5 0
-10 -4 -10 -10z"/>
<path d="M11995 670 c-3 -6 1 -7 9 -4 18 7 21 14 7 14 -6 0 -13 -4 -16 -10z"/>
<path d="M15360 651 c0 -11 -5 -23 -10 -26 -8 -5 -7 -11 1 -21 6 -8 8 -14 4
-14 -5 0 0 -10 11 -21 13 -15 15 -23 7 -26 -7 -2 -9 -11 -6 -19 3 -8 -2 -25
-11 -38 -17 -27 -6 -44 30 -47 55 -5 67 9 42 52 -10 17 -10 23 -1 26 7 2 9 11
6 19 -3 8 1 14 10 14 25 0 33 64 13 95 -13 20 -25 25 -56 25 -33 0 -40 -3 -40
-19z"/>
<path d="M7850 650 c0 -5 5 -10 10 -10 6 0 10 5 10 10 0 6 -4 10 -10 10 -5 0
-10 -4 -10 -10z"/>
<path d="M2137 630 c-4 -16 0 -20 18 -20 12 0 28 6 34 14 9 11 7 15 -11 20
-33 9 -35 8 -41 -14z"/>
<path d="M12131 623 c-1 -35 2 -37 34 -23 19 8 19 9 -2 9 -14 1 -23 9 -26 24
-3 16 -5 13 -6 -10z"/>
<path d="M12091 614 c-1 -17 -11 -24 -48 -33 l-48 -10 49 4 c58 6 59 6 53 37
-4 21 -4 21 -6 2z"/>
<path d="M16850 626 c0 -2 7 -7 16 -10 8 -3 12 -2 9 4 -6 10 -25 14 -25 6z"/>
<path d="M2120 590 c0 -5 5 -10 10 -10 6 0 10 5 10 10 0 6 -4 10 -10 10 -5 0
-10 -4 -10 -10z"/>
<path d="M7755 590 c3 -5 8 -10 11 -10 2 0 4 5 4 10 0 6 -5 10 -11 10 -5 0 -7
-4 -4 -10z"/>
<path d="M11194 575 c-4 -9 -11 -14 -18 -13 -6 2 -21 -7 -34 -20 -12 -12 -17
-22 -11 -22 5 0 7 -4 4 -10 -3 -5 -1 -10 5 -10 15 0 70 61 70 77 0 18 -9 16
-16 -2z"/>
<path d="M11355 580 c-3 -5 -1 -10 4 -10 6 0 11 5 11 10 0 6 -2 10 -4 10 -3 0
-8 -4 -11 -10z"/>
<path d="M11570 570 c0 -5 5 -10 10 -10 6 0 10 5 10 10 0 6 -4 10 -10 10 -5 0
-10 -4 -10 -10z"/>
<path d="M16124 553 c3 -4 1 -12 -5 -20 -9 -10 -6 -13 15 -13 31 0 35 25 5 33
-12 3 -18 3 -15 0z"/>
<path d="M16170 550 c0 -5 5 -10 11 -10 5 0 7 5 4 10 -3 6 -8 10 -11 10 -2 0
-4 -4 -4 -10z"/>
<path d="M10475 540 c-3 -5 -1 -10 4 -10 6 0 11 5 11 10 0 6 -2 10 -4 10 -3 0
-8 -4 -11 -10z"/>
<path d="M9331 514 c0 -11 3 -14 6 -6 3 7 2 16 -1 19 -3 4 -6 -2 -5 -13z"/>
<path d="M6748 503 c-26 -7 -30 -31 -6 -39 23 -7 54 18 44 35 -7 11 -10 12
-38 4z"/>
<path d="M9540 466 c0 -2 9 -6 20 -9 11 -3 18 -1 14 4 -5 9 -34 13 -34 5z"/>
<path d="M7798 453 c-35 -9 -29 -52 8 -53 22 0 45 26 38 43 -6 17 -14 19 -46
10z"/>
<path d="M3520 443 c-24 -10 -39 -29 -31 -41 7 -12 18 -7 45 26 19 22 15 26
-14 15z"/>
<path d="M8925 431 c-3 -6 -11 -9 -16 -5 -6 3 -18 -2 -27 -13 -20 -22 -26 -43
-12 -43 15 0 76 57 68 65 -3 3 -9 1 -13 -4z"/>
<path d="M2073 410 c-27 -11 -30 -25 -7 -34 22 -8 26 -7 49 10 17 13 18 16 5
24 -18 11 -18 11 -47 0z"/>
<path d="M2180 405 c-7 -8 -17 -12 -23 -8 -6 4 -7 1 -2 -7 5 -8 2 -17 -7 -24
-10 -7 -12 -18 -7 -31 7 -18 9 -17 20 13 8 18 18 31 24 29 17 -6 17 -53 1 -67
-20 -16 -21 -40 -2 -40 8 0 22 -3 31 -6 11 -5 18 0 22 15 4 17 8 19 20 9 11
-9 16 -9 23 1 6 10 10 9 20 -5 8 -14 10 -14 7 -3 -4 11 3 20 19 28 29 13 30
25 3 44 -20 14 -59 12 -59 -3 0 -4 -7 -11 -16 -14 -22 -8 -45 23 -39 50 6 27
-18 39 -35 19z"/>
<path d="M3060 400 c0 -5 -6 -7 -13 -4 -13 5 -45 -41 -35 -51 7 -7 68 43 68
56 0 5 -4 9 -10 9 -5 0 -10 -4 -10 -10z"/>
<path d="M3600 380 c0 -6 7 -18 15 -26 13 -14 17 -14 31 1 19 19 18 21 -19 30
-18 5 -27 3 -27 -5z"/>
<path d="M8402 365 c4 -33 22 -33 26 0 2 18 -1 25 -13 25 -12 0 -15 -7 -13
-25z"/>
<path d="M2602 338 c2 -13 8 -23 13 -23 6 0 11 10 13 23 2 15 -2 22 -13 22
-11 0 -15 -7 -13 -22z"/>
<path d="M3550 331 c0 -6 9 -15 21 -21 18 -10 20 -9 17 7 -3 19 -38 32 -38 14z"/>
<path d="M3645 321 c-6 -11 9 -23 19 -14 9 9 7 23 -3 23 -6 0 -12 -4 -16 -9z"/>
<path d="M2763 309 c-30 -11 -38 -29 -14 -29 11 0 23 -4 26 -10 10 -17 25 -11
25 9 0 11 8 21 18 23 12 3 10 5 -9 9 -14 3 -35 2 -46 -2z"/>
<path d="M8051 294 c0 -11 3 -14 6 -6 3 7 2 16 -1 19 -3 4 -6 -2 -5 -13z"/>
<path d="M7495 270 c-10 -11 -16 -22 -13 -25 3 -3 13 4 23 15 10 11 16 22 13
25 -3 3 -13 -4 -23 -15z"/>
<path d="M1817 263 c-4 -3 -7 -11 -7 -17 0 -6 5 -5 12 2 6 6 9 14 7 17 -3 3
-9 2 -12 -2z"/>
<path d="M2652 259 c2 -6 8 -10 13 -10 5 0 11 4 13 10 2 6 -4 11 -13 11 -9 0
-15 -5 -13 -11z"/>
<path d="M2270 246 c0 -12 8 -16 30 -14 32 2 29 12 -7 23 -17 5 -23 2 -23 -9z"/>
</g>
</svg>
